<svg xmlns="http://www.w3.org/2000/svg" viewBox="0 0 704.789 714.404">
  <path fill="#c83737" d="M60.845 465.874c5.68-6.78 5.93-18 3.39-26.18-3.29-10.55-13.61-11.22-22.8-10.64-5.67.35-9.28-2.12-12.39-6.57-7.04-10.09-22.64-40.77-5.63-49.15 7.42-3.65 8.93-12.43 8.58-19.96q-.53-11.54-3.27-20.07c-2.64-8.26-9.02-10.21-16.84-11.12-4.48-.52-8.05-4.07-9.66-8.25q-2.03-5.23-2.15-11.87-.15-9.13 0-19.16c.11-7.38 1.3-18.38 9.31-21.6q2.8-1.13 6-2.29c9.15-3.33 15.05-12.64 16.92-21.98 1.71-8.59-4.33-18.66-10.43-24.42-3.49-3.29-7.42-5.59-7.67-10.96q-.16-3.32 1.25-6.56 3.56-8.22 7.2-17.11c3.01-7.33 8.3-14.3 16.78-14.41 10.91-.15 20.93-5.08 27.82-13.16q4.24-4.98 2.76-12.07c-1.42-6.76-4.64-13.15-8.08-19.34-4.04-7.26 3.15-15.52 7.94-20.34q5.95-5.99 11.43-11.66c5.62-5.81 13.36-12.73 21.22-14.77q3.44-.89 7.88-.14c10.37 1.75 27.12 3.86 33.59-7.09q6.16-10.41 4.84-22.25c-.19-1.7.87-3.31 2.04-4.44 9.18-8.84 21.5-14.43 33.15-19.26 7.86-3.26 17.16-5.89 23.58 1.7 9.61 11.33 32.16 15.13 45.17 7.52 7.49-4.38 15.08-12.29 16.29-21.02.69-4.91 10.51-6.11 14.42-6.47 16.31-1.5 32.93-.48 49.45.04a.2.19 1.4 0 1 .2.2l-.21 90.25a.51.51 0 0 1-.54.51c-46.61-1.78-94 5.12-135.13 27.04q-39.95 21.28-64.76 56.77c-46.46 66.47-42.78 159.42 6.32 223.38q32.71 42.62 84.11 61.41 33.16 12.13 70.8 12.79 3.94.06 7.73.41.41.04.41.46l-.08 112.96q0 .53-.52.52c-8.28-.11-50.34-1.48-50.89-10.09-.46-7.16-6.88-13.15-12.96-16.2q-3.87-1.95-10.44-2.27-6.76-.34-11.78-.16-8.34.3-8.87 8.23c-.56 8.36-15.63 3.24-20.02 1.67-9.34-3.33-46.9-17.34-43.89-30 1.15-4.85 2.69-10.91-.71-15.04q-2.54-3.09-7.51-6.03c-7.55-4.47-21.95-11.8-30.19-6.44-7.7 5-17.51-4.01-23.17-9.79q-7.18-7.31-13.85-15.27c-3.96-4.72-10.99-14.47-6.14-20.26z"/>
  <path fill="#c83737" d="m402.435 338.734 3.41 131.44a.15.15 0 0 0 .14.14q24.85.55 48.74-5.35 58.02-14.33 96.15-57.11c52.62-59.02 66.68-145.27 32.36-217.13q-17.21-36.02-48.44-63.67c-42.19-37.36-96.87-57.19-151.8-66.35q-8.35-1.4-16.5-5.53c-13.42-6.82-19.14-19.57-21.2-34.19q-1.33-9.46-1.39-18.65 0-.51.51-.52c9.23-.18 18.76.05 28.13.23q63.86 1.18 124.96 19.85 27.02 8.26 54.37 22.08c45.47 22.98 84.52 57.01 111.44 99.7 36.61 58.04 48.73 127.33 37.36 195.24q-7.93 47.29-31.31 91.41-5.04 9.51-9.81 16.96-56.5 88.1-155.23 121.08-46.99 15.7-102.69 16.47-.47.01-.47.48.86 62.37 3.96 128.53.03.57-.54.56l-90.1-1.73q-.44 0-.44-.45l-2.72-376.43q-.01-.49-.5-.48-55.92.61-111.28 1.52c-6.45.11-10.39-5.91-10.39-11.82q.03-80.11.07-160.22 0-6.56 1.48-9.3 2.74-5.06 9.57-5.06 146.13.02 292.25-.03c5.81-.01 8.13 5.09 9.69 9.89q27.04 83.6 54.01 167.21c2.2 6.82-4.04 11.07-10.01 11.04q-51.64-.18-143.06-.54-.74 0-.72.73z"/>
</svg>
